<svg xmlns="http://www.w3.org/2000/svg" xmlns:xlink="http://www.w3.org/1999/xlink" version="1.1" id="Layer_1" x="0px" y="0px" width="425.6px" height="97px" viewBox="0 0 425.6 97" style="enable-background:new 0 0 425.6 97;" xml:space="preserve">
<g>
	<g>
		<path style="fill:#FFFFFF;" d="M98.5,83.3v2.4h-4v11h-2.8v-11h-4v-2.4H98.5z"/>
		<path style="fill:#FFFFFF;" d="M112.1,85.7h-7v2.8h6.5v2.3H105v3.4h7.4v2.4h-10.1V83.3h9.8V85.7z"/>
		<path style="fill:#FFFFFF;" d="M118.8,96.6h-3.2l4.3-6.8l-4.1-6.5h3.3l2.4,4.3l2.4-4.3h3.2l-4.1,6.4l4.3,6.9H124l-2.5-4.5    L118.8,96.6z"/>
		<path style="fill:#FFFFFF;" d="M140.8,83.3v2.4h-4v11H134v-11h-4v-2.4H140.8z"/>
		<path style="fill:#FFFFFF;" d="M144.5,83.3h2.8v8.2c0,0.9,0.1,1.6,0.3,2c0.3,0.7,1.1,1.1,2.2,1.1c1.1,0,1.9-0.4,2.2-1.1    c0.2-0.4,0.3-1.1,0.3-2v-8.2h2.8v8.2c0,1.4-0.2,2.5-0.7,3.3c-0.8,1.4-2.4,2.2-4.7,2.2s-3.9-0.7-4.7-2.2c-0.4-0.8-0.7-1.9-0.7-3.3    V83.3z"/>
		<path style="fill:#FFFFFF;" d="M168.5,83.6c0.5,0.2,0.9,0.5,1.2,0.9c0.3,0.3,0.5,0.7,0.7,1.1c0.2,0.4,0.2,0.9,0.2,1.4    c0,0.6-0.2,1.3-0.5,1.9s-0.8,1-1.6,1.3c0.6,0.2,1,0.6,1.3,1.1c0.3,0.5,0.4,1.1,0.4,2.1v0.9c0,0.6,0,1,0.1,1.2    c0.1,0.3,0.2,0.6,0.5,0.8v0.3h-3.1c-0.1-0.3-0.1-0.5-0.2-0.7c-0.1-0.4-0.1-0.8-0.1-1.1l0-1.2c0-0.8-0.2-1.4-0.4-1.7    s-0.8-0.4-1.6-0.4h-2.7v5.2H160V83.3h6.4C167.3,83.3,168,83.4,168.5,83.6z M162.7,85.6v3.6h3c0.6,0,1-0.1,1.3-0.2    c0.5-0.3,0.8-0.8,0.8-1.5c0-0.8-0.3-1.3-0.8-1.6c-0.3-0.2-0.7-0.2-1.3-0.2H162.7z"/>
		<path style="fill:#FFFFFF;" d="M185.2,85.7h-7v2.8h6.5v2.3h-6.5v3.4h7.4v2.4h-10.1V83.3h9.8V85.7z"/>
		<path style="fill:#FFFFFF;" d="M197.6,83.6c0.9,0.3,1.7,0.9,2.3,1.7c0.5,0.7,0.8,1.4,0.9,2.2c0.2,0.8,0.3,1.5,0.3,2.2    c0,1.8-0.4,3.3-1.1,4.5c-1,1.7-2.5,2.5-4.5,2.5h-5.7V83.3h5.7C196.4,83.3,197.1,83.4,197.6,83.6z M192.5,85.6v8.7h2.6    c1.3,0,2.2-0.6,2.8-1.9c0.3-0.7,0.4-1.6,0.4-2.5c0-1.4-0.2-2.4-0.6-3.1c-0.4-0.7-1.3-1.1-2.5-1.1H192.5z"/>
		<path style="fill:#FFFFFF;" d="M212.5,96.6V83.3h2.8v5.1h5.2v-5.1h2.8v13.3h-2.8v-5.9h-5.2v5.9H212.5z"/>
		<path style="fill:#FFFFFF;" d="M231.7,83.3h3.1l4.7,13.3h-3l-0.9-2.7h-4.9l-0.9,2.7H227L231.7,83.3z M231.6,91.6h3.4l-1.7-5.2    L231.6,91.6z"/>
		<path style="fill:#FFFFFF;" d="M245.9,96.6h-2.8V83.3h2.8V96.6z"/>
		<path style="fill:#FFFFFF;" d="M259.2,83.6c0.5,0.2,0.9,0.5,1.2,0.9c0.3,0.3,0.5,0.7,0.7,1.1s0.2,0.9,0.2,1.4    c0,0.6-0.2,1.3-0.5,1.9c-0.3,0.6-0.8,1-1.6,1.3c0.6,0.2,1,0.6,1.3,1.1c0.3,0.5,0.4,1.1,0.4,2.1v0.9c0,0.6,0,1,0.1,1.2    c0.1,0.3,0.2,0.6,0.5,0.8v0.3h-3.1c-0.1-0.3-0.1-0.5-0.2-0.7c-0.1-0.4-0.1-0.8-0.1-1.1l0-1.2c0-0.8-0.2-1.4-0.4-1.7    c-0.3-0.3-0.8-0.4-1.6-0.4h-2.7v5.2h-2.7V83.3h6.4C258,83.3,258.7,83.4,259.2,83.6z M253.4,85.6v3.6h3c0.6,0,1-0.1,1.3-0.2    c0.5-0.3,0.8-0.8,0.8-1.5c0-0.8-0.3-1.3-0.8-1.6c-0.3-0.2-0.7-0.2-1.3-0.2H253.4z"/>
		<path style="fill:#FFFFFF;" d="M283.1,85.7h-7v2.8h6.5v2.3h-6.5v3.4h7.4v2.4h-10.1V83.3h9.8V85.7z"/>
		<path style="fill:#FFFFFF;" d="M289.9,96.6h-3.2l4.3-6.8l-4.1-6.5h3.3l2.4,4.3l2.4-4.3h3.2l-4.1,6.4l4.3,6.9h-3.4l-2.5-4.5    L289.9,96.6z"/>
		<path style="fill:#FFFFFF;" d="M311.8,83.3v2.4h-4v11H305v-11h-4v-2.4H311.8z"/>
		<path style="fill:#FFFFFF;" d="M325.4,85.7h-7v2.8h6.5v2.3h-6.5v3.4h7.4v2.4h-10.1V83.3h9.8V85.7z"/>
		<path style="fill:#FFFFFF;" d="M329.9,83.3h2.9l5.3,9.3v-9.3h2.6v13.3h-2.8l-5.4-9.4v9.4h-2.6V83.3z"/>
		<path style="fill:#FFFFFF;" d="M347.4,92.5c0.1,0.6,0.3,1.1,0.5,1.4c0.5,0.5,1.3,0.8,2.4,0.8c0.7,0,1.2-0.1,1.6-0.2    c0.8-0.3,1.2-0.8,1.2-1.5c0-0.4-0.2-0.8-0.6-1c-0.4-0.2-1-0.4-1.8-0.6l-1.4-0.3c-1.4-0.3-2.4-0.7-2.9-1c-0.9-0.6-1.3-1.6-1.3-2.9    c0-1.2,0.4-2.2,1.3-3s2.2-1.2,3.9-1.2c1.4,0,2.6,0.4,3.6,1.1c1,0.7,1.5,1.8,1.6,3.2h-2.7c0-0.8-0.4-1.4-1.1-1.7    c-0.4-0.2-1-0.3-1.7-0.3c-0.7,0-1.3,0.1-1.8,0.4c-0.4,0.3-0.7,0.7-0.7,1.2c0,0.5,0.2,0.8,0.6,1.1c0.3,0.2,0.9,0.3,1.8,0.6l2.3,0.6    c1,0.2,1.8,0.6,2.3,1c0.8,0.6,1.2,1.5,1.2,2.7c0,1.2-0.5,2.2-1.4,3c-0.9,0.8-2.3,1.2-4,1.2c-1.8,0-3.1-0.4-4.1-1.2    c-1-0.8-1.5-1.9-1.5-3.3H347.4z"/>
		<path style="fill:#FFFFFF;" d="M362.4,96.6h-2.8V83.3h2.8V96.6z"/>
		<path style="fill:#FFFFFF;" d="M377.3,95.4c-1,1-2.5,1.6-4.4,1.6s-3.4-0.5-4.4-1.6c-1.3-1.3-2-3.1-2-5.5c0-2.4,0.7-4.3,2-5.5    c1-1,2.5-1.6,4.4-1.6s3.4,0.5,4.4,1.6c1.3,1.2,2,3.1,2,5.5C379.4,92.3,378.7,94.2,377.3,95.4z M375.6,93.4c0.6-0.8,1-2,1-3.5    c0-1.5-0.3-2.6-1-3.5c-0.6-0.8-1.5-1.2-2.6-1.2s-2,0.4-2.6,1.2c-0.7,0.8-1,2-1,3.5c0,1.5,0.3,2.7,1,3.5c0.7,0.8,1.5,1.2,2.6,1.2    S375,94.2,375.6,93.4z"/>
		<path style="fill:#FFFFFF;" d="M383.5,83.3h2.9l5.3,9.3v-9.3h2.6v13.3h-2.8l-5.4-9.4v9.4h-2.6V83.3z"/>
		<path style="fill:#FFFFFF;" d="M401,92.5c0.1,0.6,0.3,1.1,0.5,1.4c0.5,0.5,1.3,0.8,2.4,0.8c0.7,0,1.2-0.1,1.6-0.2    c0.8-0.3,1.2-0.8,1.2-1.5c0-0.4-0.2-0.8-0.6-1c-0.4-0.2-1-0.4-1.8-0.6l-1.4-0.3c-1.4-0.3-2.4-0.7-2.9-1c-0.9-0.6-1.3-1.6-1.3-2.9    c0-1.2,0.4-2.2,1.3-3s2.2-1.2,3.9-1.2c1.4,0,2.6,0.4,3.6,1.1c1,0.7,1.5,1.8,1.6,3.2h-2.7c0-0.8-0.4-1.4-1.1-1.7    c-0.4-0.2-1-0.3-1.7-0.3c-0.7,0-1.3,0.1-1.8,0.4c-0.4,0.3-0.7,0.7-0.7,1.2c0,0.5,0.2,0.8,0.6,1.1c0.3,0.2,0.9,0.3,1.8,0.6l2.3,0.6    c1,0.2,1.8,0.6,2.3,1c0.8,0.6,1.2,1.5,1.2,2.7c0,1.2-0.5,2.2-1.4,3c-0.9,0.8-2.3,1.2-4,1.2c-1.8,0-3.1-0.4-4.1-1.2    c-1-0.8-1.5-1.9-1.5-3.3H401z"/>
	</g>
	<path style="fill:#FFFFFF;" d="M403.6,62.3H96.5V13.7h307.1V62.3z M90.8,68.4h319.2V7.6H90.8V68.4z"/>
	<g>
		<path style="fill:#FFFFFF;" d="M119.4,49.6V25.5h4.1c1.6,0,3.1,0.3,4.4,0.9c1.3,0.6,2.5,1.4,3.5,2.5c1,1.1,1.7,2.3,2.3,3.8    c0.5,1.4,0.8,3,0.8,4.7c0,2-0.3,3.7-0.9,5.2c-0.6,1.5-1.4,2.8-2.4,3.8c-1,1-2.2,1.8-3.5,2.4c-1.3,0.5-2.7,0.8-4.2,0.8H119.4z     M132.2,51.5c2.3-0.8,4.3-1.9,5.8-3.3c1.6-1.4,2.8-3,3.6-4.9c0.8-1.9,1.2-3.9,1.2-6c0-2.4-0.5-4.5-1.5-6.3c-1-1.8-2.3-3.4-4.1-4.7    c-1.8-1.3-3.9-2.2-6.3-2.9c-2.4-0.7-5.1-1-8-1h-11.3v30.2h12.5C127.3,52.7,129.9,52.3,132.2,51.5"/>
	</g>
	<path style="fill:#FFFFFF;" d="M171.2,31.9l4.6,9.8h-9.4L171.2,31.9z M165,44.4h12.1l3.9,8.3h7.8l-14.6-30.9h-3.3l-15.2,30.9h5.2   L165,44.4z"/>
	<g>
		<path style="fill:#FFFFFF;" d="M211.3,25.4h3.1c0.7,0,1.4,0.1,2,0.4c0.6,0.3,1.2,0.6,1.6,1.1c0.5,0.5,0.8,1.1,1.1,1.7    c0.3,0.7,0.4,1.4,0.4,2.2c0,0.9-0.2,1.6-0.5,2.3c-0.3,0.7-0.8,1.3-1.4,1.7c-0.6,0.5-1.3,0.8-2.1,1.1c-0.8,0.3-1.7,0.4-2.6,0.4    h-1.7V25.4z M211.3,39h1.4l10.5,13.7h8.3l-11.1-14.5c1.1-0.3,2-0.7,2.9-1.2c0.9-0.5,1.6-1.1,2.3-1.7c0.6-0.6,1.1-1.3,1.5-2.1    c0.3-0.8,0.5-1.6,0.5-2.4c0-1.2-0.3-2.3-0.8-3.3c-0.5-1-1.3-1.9-2.3-2.6c-1-0.7-2.3-1.3-3.8-1.7c-1.5-0.4-3.3-0.6-5.3-0.6h-11.7    v30.2h7.6V39z"/>
	</g>
	<polygon style="fill:#FFFFFF;" points="268.6,49.6 252.7,49.6 252.7,22.5 245.1,22.5 245.1,52.7 268.6,52.7  "/>
	<rect x="285.7" y="22.5" style="fill:#FFFFFF;" width="7.6" height="30.2"/>
	<polygon style="fill:#FFFFFF;" points="316.3,32 335.6,53.2 338.9,53.2 338.9,22.5 334.1,22.5 334.1,41.7 316.4,22.5 311.5,22.5    311.5,52.7 316.3,52.7  "/>
	<g>
		<path style="fill:#FFFFFF;" d="M360.7,49c1.6,1.3,3.6,2.4,5.8,3.1c2.3,0.7,4.7,1.1,7.4,1.1c1.7,0,3.2-0.1,4.5-0.3    c1.3-0.2,2.6-0.4,3.7-0.7c1.1-0.3,2.2-0.7,3.2-1.1c1-0.4,2-0.9,3-1.4V38h-12.9v2.6h5.3v8c-0.7,0.5-1.5,0.9-2.4,1.1    c-0.9,0.2-1.8,0.4-2.7,0.4c-1.6,0-3.1-0.3-4.6-0.8c-1.4-0.5-2.7-1.3-3.7-2.3c-1-1-1.9-2.3-2.5-3.8c-0.6-1.5-0.9-3.2-0.9-5.2    c0-2,0.3-3.7,0.9-5.3c0.6-1.5,1.4-2.8,2.4-3.9c1-1.1,2.2-1.9,3.6-2.4c1.4-0.6,2.9-0.8,4.5-0.8c1.1,0,2.1,0.2,3,0.5    c0.9,0.3,1.8,0.8,2.6,1.3c0.8,0.6,1.6,1.2,2.3,2c0.7,0.8,1.4,1.6,2.1,2.5l3.1-2.8c-0.7-0.9-1.5-1.8-2.5-2.7    c-1-0.9-2.1-1.7-3.4-2.4c-1.2-0.7-2.6-1.2-4.1-1.6c-1.5-0.4-3-0.6-4.6-0.6c-1.8,0-3.5,0.2-5.1,0.5c-1.6,0.4-3.1,0.9-4.4,1.5    c-1.4,0.7-2.6,1.5-3.7,2.4c-1.1,1-2,2-2.8,3.2c-0.8,1.2-1.4,2.5-1.8,3.9c-0.4,1.4-0.6,2.9-0.6,4.5c0,2.3,0.5,4.4,1.4,6.2    C357.8,46.1,359.1,47.7,360.7,49"/>
	</g>
	<path style="fill:#FFFFFF;" d="M425.6,13.8V7.6h-1.4l-1.1,3.1l-1.2-3.1h-1.5v6.1h1.2v-3.5l1.5,3.5l1.3-3.4v3.4H425.6z M418.3,13.8   V8.9h1.5V7.6h-4.4v1.2h1.6v4.9H418.3z"/>
	<g>
		<path style="fill:#FFFFFF;" d="M58.2,0v1.2h1.6v5.1h1.3V1.2h1.6V0H58.2z M67.1,0L66,3.2L64.8,0h-1.5v6.3h1.2V2.7L66,6.3l1.3-3.5    v3.5h1.3V0H67.1z"/>
		<g>
			<defs>
				<rect id="SVGID_1_" y="0" width="68.6" height="77.2"/>
			</defs>
			<clipPath id="SVGID_00000176738984480306072220000014749858094410111120_">
				<use xlink:href="#SVGID_1_" style="overflow:visible;"/>
			</clipPath>
			<path style="clip-path:url(#SVGID_00000176738984480306072220000014749858094410111120_);fill:#FFFFFF;" d="M0,0h25.5     c0,0-0.3,3-7.5,6c-7.2,3-8.9,2.8-13.4,6.6C0.2,16.5,0,21.1,0,21.1V0z"/>
			<path style="clip-path:url(#SVGID_00000176738984480306072220000014749858094410111120_);fill:#FFFFFF;" d="M4.9,20.2     c5.5-7,9.5-7.2,16.5-11.6C28.3,4.2,28,0,28,0h4.6c0,0-0.7,9.4-6.8,15.4c-6.2,6-9.6,7.1-16.1,12.8C1.4,35.7,0,44,0,44V33.2     C0,33.2-0.6,27.2,4.9,20.2"/>
			<path style="clip-path:url(#SVGID_00000176738984480306072220000014749858094410111120_);fill:#FFFFFF;" d="M0,77.2V56.5     c0,0,0.6,6,6.4,13.1c4.1,5,9.3,7.6,9.3,7.6H0z"/>
			<path style="clip-path:url(#SVGID_00000176738984480306072220000014749858094410111120_);fill:#FFFFFF;" d="M52.6,70.3     c0,0-2.3,2.4-6.9,4.2c-1.3,0.5-3.7,1.4-7.5,2.1c-3.6,0.7-6.1,0.6-6.1,0.6h-8.4H23h-0.2l0.1-0.2c0.8-2.4,2.1-6,3.9-9.4     c2.9-5.6,9.1-3.8,9.1-3.8s6.9,1.8,10.7,1.4c3.8-0.4,3.5-4.5,3.6-6.4c0.1-1.9,1.7-2.4,1.7-2.4s1.2-0.5,1.4-1.6     c0.2-1.1-1-2.8-1-2.8s3.1-3.4,0.8-4.3C51.2,47,52.4,46,52.4,46s2.1-1.5,2-2.9c-0.1-1.4-1.4-2.4-1.4-2.4c-1.9-1.5-4.7-5.3-4.7-7.4     c-0.2-4.9,1.6-9.6,0.3-14.5c-1.3-5-4.6-9.2-9.2-11.6L39.1,7L39,6.9c-0.3-0.1-0.4-0.1-0.3,0.1c1.8,15.2-7.3,23.9-10.9,29.2     c-3.7,5.3-9.7,10.3-12,21.6c-1.9,9.1,2.4,19.5,2.4,19.5S6.3,69,4.1,59.7c-1.5-6.3-0.9-12.1,2.7-17.6c3.4-5.2,7.2-8.1,15.7-15.8     c6.1-5.5,9.1-9.3,11.2-15.5c1.7-4.8,1.2-8.7,0.9-10.2c-0.1-0.2,0.2-0.5,0.4-0.4c1.5,0.7,5.8,2.8,10.6,8.2     c5.9,6.7,9.8,16.4,11.5,22.5c1.7,6.2,3.2,16.9,1.9,26C57.7,65.9,52.6,70.3,52.6,70.3"/>
			<path style="clip-path:url(#SVGID_00000176738984480306072220000014749858094410111120_);fill:#FFFFFF;" d="M68.6,41.1     c-0.8,16.8-9.3,24.3-9.3,24.3s2.9-6.9,3.6-14.8c0.6-6.7-0.2-15.5-3-22.7C56.5,19.5,53,13.3,47.7,8C42.5,2.7,38,0.4,38,0.4     c6.5,1,14,3.4,19.7,9C63.2,14.8,69.3,24.3,68.6,41.1"/>
		</g>
	</g>
</g>
</svg>